# xmcd CD database file
# Copyright (C) 1993-2000  Ti Kan
#
# Track frame offsets:
#	150
#	10171
#	25383
#	49141
#	70154
#	89424
#	104430
#	115573
#	134121
#	154387
#	173650
#	191010
#
# Disc length: 2825 seconds
#
# Revision: 1
# Processed by: cddbd v1.5.2PL0 Copyright (c) Steve Scherf et al.
# Submitted via: xmcd 2.6 PL0
#
DISCID=a30b070c
DTITLE=Alli Rogers - The Day Of Small Things
DYEAR=1900
DGENRE=
TTITLE0=The Day Of Small Things
TTITLE1=If I'm Brave
TTITLE2=Hope
TTITLE3=For The Morning
TTITLE4=Tanzania
TTITLE5=One Body
TTITLE6=Wings On My Back
TTITLE7=Fearless
TTITLE8=Iowa
TTITLE9=The Family Is Fine
TTITLE10=Liar's Dream
TTITLE11=Praise The Lamb
EXTD=
EXTT0=
EXTT1=
EXTT2=
EXTT3=
EXTT4=
EXTT5=
EXTT6=
EXTT7=
EXTT8=
EXTT9=
EXTT10=
EXTT11=
PLAYORDER=
